<?xml version="1.0" encoding="UTF-8"?>
<svg xmlns="http://www.w3.org/2000/svg" xmlns:xlink="http://www.w3.org/1999/xlink" width="24" height="24" viewBox="0 0 24 24" version="1.1">
    <title>ic_Business cards filled</title>
    <defs>
        <path d="M19.5,3 C21.709139,3 23.5,4.790861 23.5,7 L23.5,17 C23.5,19.209139 21.709139,21 19.5,21 L4.5,21 C2.290861,21 0.5,19.209139 0.5,17 L0.5,7 C0.5,4.790861 2.290861,3 4.5,3 L19.5,3 Z M16.5033314,12.25 C13.360271,12.25 12.5536763,14.2267892 12.2432474,14.8888889 C12.1248328,15.1414501 12.0452065,15.4798878 12.0043686,15.9042018 C12.0013041,15.9360426 11.9997692,15.9680121 11.9997692,16 C11.9997692,16.5522631 12.4474669,16.9999609 12.9997301,17 L12.9997301,17 L20.0001643,17 C20.0328578,17 20.0655317,16.9983967 20.0980681,16.995196 C20.6477083,16.9411252 21.0494467,16.4517208 20.9953604,15.9020821 C20.9537162,15.4787605 20.8764012,15.1410294 20.7634154,14.8888889 C20.4667244,14.2267892 19.6463918,12.25 16.5033314,12.25 Z M9.25,15.25 L4.75,15.25 C4.33578644,15.25 4,15.5857864 4,16 C4,16.3796958 4.28215388,16.693491 4.64822944,16.7431534 L4.75,16.75 L9.25,16.75 C9.66421356,16.75 10,16.4142136 10,16 C10,15.5857864 9.66421356,15.25 9.25,15.25 Z M9.25,11.25 L4.75,11.25 C4.33578644,11.25 4,11.5857864 4,12 C4,12.3796958 4.28215388,12.693491 4.64822944,12.7431534 L4.75,12.75 L9.25,12.75 C9.66421356,12.75 10,12.4142136 10,12 C10,11.5857864 9.66421356,11.25 9.25,11.25 Z M16.5033314,6.875 C15.1226196,6.875 14.0033314,7.99428813 14.0033314,9.375 C14.0033314,10.7557119 15.1226196,11.875 16.5033314,11.875 C17.8840433,11.875 19.0033314,10.7557119 19.0033314,9.375 C19.0033314,7.99428813 17.8840433,6.875 16.5033314,6.875 Z M9.25,7.25 L4.75,7.25 C4.33578644,7.25 4,7.58578644 4,8 C4,8.37969577 4.28215388,8.69349096 4.64822944,8.74315338 L4.75,8.75 L9.25,8.75 C9.66421356,8.75 10,8.41421356 10,8 C10,7.58578644 9.66421356,7.25 9.25,7.25 Z" id="_path-1"/>
    </defs>
    <g id="_ic_Business-cards-filled" stroke="none" stroke-width="1" fill="none" fill-rule="evenodd">
        <mask id="_mask-2" fill="white">
            <use xlink:href="#_path-1"/>
        </mask>
        <use id="_形状结合" fill="#0091FF" xlink:href="#_path-1"/>
    </g>
</svg>