<?xml version="1.0" encoding="UTF-8"?>
<svg xmlns="http://www.w3.org/2000/svg" xmlns:xlink="http://www.w3.org/1999/xlink" width="24" height="24" viewBox="0 0 24 24" version="1.1">
    <title>Public/ic_public_timer</title>
    <defs>
        <path d="M12,1 C18.0751322,1 23,5.92486775 23,12 C23,18.0751322 18.0751322,23 12,23 C5.92486775,23 1,18.0751322 1,12 C1,9.05616369 2.16269703,6.29434492 4.19635209,4.24738193 C4.48828856,3.95353508 4.96315977,3.9519864 5.25700662,4.24392287 C5.55085348,4.53585934 5.55240215,5.01073055 5.26046569,5.3045774 C3.50324089,7.0733012 2.5,9.45635496 2.5,12 C2.5,17.2467051 6.75329488,21.5 12,21.5 C17.2467051,21.5 21.5,17.2467051 21.5,12 C21.5,7.00571522 17.6461147,2.91155359 12.75,2.52917098 L12.75,5.69524966 C12.75,6.10946323 12.4142136,6.44524966 12,6.44524966 C11.5857864,6.44524966 11.25,6.10946323 11.25,5.69524966 L11.25,1.75 C11.25,1.33578644 11.5857864,1 12,1 Z M7.5,7 C7.59204746,7 7.6782855,7.02487307 7.75235957,7.06826466 L7.81456757,7.1116333 C7.82122582,7.11679072 7.82494741,7.11994457 7.82862167,7.12315128 L12.6866608,11.2730103 L12.6851592,11.2736333 L12.7071068,11.2928932 C13.0675681,11.6533545 13.0952959,12.2206257 12.7902902,12.6129039 L12.7071068,12.7071068 C12.3466455,13.0675681 11.7793743,13.0952959 11.3870961,12.7902902 L11.2928932,12.7071068 L11.2696342,12.6826286 L11.2407977,12.6509274 C11.228475,12.6365855 11.2166252,12.6219771 11.2052485,12.6071225 L7.12881676,7.83500307 C7.04875122,7.74634643 7,7.62886644 7,7.5 C7,7.22385763 7.22385763,7 7.5,7 Z" id="_path-1"/>
    </defs>
    <g id="_Public/ic_public_timer" stroke="none" stroke-width="1" fill="none" fill-rule="evenodd">
        <mask id="_mask-2" fill="white">
            <use xlink:href="#_path-1"/>
        </mask>
        <use id="_Combined-Shape" fill="#000000" xlink:href="#_path-1"/>
    </g>
</svg>